<svg width="250" height="63" viewBox="0 0 250 63" fill="none" xmlns="http://www.w3.org/2000/svg">
<path d="M90.002 31.475H78.2516V7.05559H89.7488C94.8136 7.05559 97.9031 9.55759 97.9031 13.3606V13.4106C97.9031 16.1628 96.4342 17.714 94.6616 18.6648C97.4978 19.7657 99.2707 21.367 99.2707 24.6696V24.7196C99.2707 29.2731 95.624 31.475 90.002 31.475ZM92.4839 14.3114C92.4839 12.7101 91.2177 11.8094 88.9384 11.8094H83.5697V16.9635H88.5839C90.9644 16.9635 92.4839 16.2129 92.4839 14.3614V14.3114ZM93.8514 24.0692C93.8514 22.4178 92.6356 21.417 89.85 21.417H83.5697V26.7713H90.0528C92.4331 26.7713 93.902 25.9206 93.902 24.1192V24.0692H93.8514ZM105.247 31.475V7.05559H110.667V31.475H105.247ZM135.282 31.475L123.329 15.9627V31.475H117.96V7.05559H122.974L134.572 22.1175V7.05559H139.941V31.475H135.282ZM164.354 31.475L162.075 26.0206H151.641L149.362 31.475H143.841L154.427 6.85544H159.441L170.026 31.475H164.354ZM156.858 13.3606L153.566 21.2668H160.15L156.858 13.3606ZM191.349 31.475L179.396 15.9627V31.475H174.028V7.05559H179.042L190.64 22.1175V7.05559H196.009V31.475H191.349ZM213.888 31.9252C206.594 31.9252 201.226 26.371 201.226 19.3654V19.3153C201.226 12.3598 206.543 6.70533 214.142 6.70533C218.801 6.70533 221.587 8.25654 223.866 10.4583L220.421 14.4114C218.496 12.7101 216.573 11.6593 214.091 11.6593C209.937 11.6593 206.898 15.062 206.898 19.2653V19.3153C206.898 23.5187 209.837 26.9715 214.091 26.9715C216.927 26.9715 218.65 25.8706 220.573 24.1192L224.018 27.5719C221.484 30.2241 218.699 31.9252 213.888 31.9252ZM228.423 31.475V7.05559H247.063V11.8594H233.843V16.8133H245.492V21.6171H233.843V26.7213H247.266V31.525H228.423V31.475ZM7.19203 24.3694L0 31.475L7.19203 38.5806L14.3841 31.475L7.19203 24.3694ZM31.9085 14.2113L44.2665 26.421L51.4587 19.3153L31.9085 0L12.3581 19.3153L19.5503 26.421L31.9085 14.2113ZM56.6248 24.3694L49.4329 31.475L56.6248 38.5806L63.8169 31.475L56.6248 24.3694ZM31.9085 48.7888L19.5503 36.579L12.3581 43.6846L31.9085 63L51.4587 43.6846L44.2665 36.579L31.9085 48.7888ZM31.9085 38.6306L39.1004 31.525L31.9085 24.4194L24.7163 31.525L31.9085 38.6306Z" fill="#F3BA2F"/>
<path d="M78 50.3632L81.4507 50.0494C81.6584 51.1327 82.0777 51.9284 82.7088 52.4364C83.3478 52.9444 84.2065 53.1984 85.2848 53.1984C86.427 53.1984 87.2857 52.9743 87.8608 52.526C88.4439 52.0703 88.7355 51.5399 88.7355 50.9347C88.7355 50.5463 88.6117 50.2175 88.3641 49.9486C88.1244 49.6722 87.7011 49.4331 87.094 49.2314C86.6786 49.0969 85.7321 48.8578 84.2544 48.5142C82.3533 48.0734 81.0194 47.5318 80.2525 46.8893C79.1742 45.9853 78.635 44.8833 78.635 43.5834C78.635 42.7466 78.8866 41.9659 79.3899 41.2413C79.9011 40.5091 80.632 39.9525 81.5825 39.5715C82.541 39.1905 83.6952 39 85.0452 39C87.2498 39 88.9072 39.452 90.0175 40.356C91.1358 41.2599 91.7229 42.4665 91.7788 43.9756L88.2323 44.1213C88.0805 43.2771 87.753 42.6719 87.2498 42.3059C86.7545 41.9323 86.0077 41.7456 85.0092 41.7456C83.9788 41.7456 83.172 41.9435 82.5889 42.3395C82.2135 42.5935 82.0258 42.9334 82.0258 43.3593C82.0258 43.7477 82.2015 44.0802 82.553 44.3566C83.0003 44.7078 84.0866 45.0738 85.812 45.4548C87.5373 45.8359 88.8114 46.2318 89.6341 46.6427C90.4648 47.0461 91.1118 47.6027 91.5751 48.3125C92.0464 49.0147 92.282 49.8851 92.282 50.9235C92.282 51.8649 92.0025 52.7464 91.4433 53.5682C90.8842 54.39 90.0934 55.0026 89.071 55.4061C88.0485 55.802 86.7745 56 85.2488 56C83.0283 56 81.3229 55.5219 80.1327 54.5656C78.9425 53.6018 78.2316 52.2011 78 50.3632Z" fill="#F3BA2F"/>
<path d="M95.2175 55.7086V39.2802H100.525L103.712 50.4865L106.864 39.2802H112.183V55.7086H108.888V42.7765L105.402 55.7086H101.987L98.5124 42.7765V55.7086H95.2175Z" fill="#F3BA2F"/>
<path d="M131.546 55.7086H127.688L126.154 51.9769H119.133L117.683 55.7086H113.921L120.762 39.2802H124.512L131.546 55.7086ZM125.016 49.209L122.595 43.1127L120.223 49.209H125.016Z" fill="#F3BA2F"/>
<path d="M133.451 55.7086V39.2802H140.915C142.792 39.2802 144.154 39.4296 145.001 39.7284C145.856 40.0198 146.539 40.5427 147.05 41.2973C147.561 42.0519 147.817 42.9147 147.817 43.886C147.817 45.1187 147.429 46.1384 146.654 46.9453C145.88 47.7447 144.721 48.249 143.18 48.4581C143.947 48.8765 144.578 49.336 145.073 49.8365C145.576 50.3371 146.251 51.2261 147.098 52.5036L149.242 55.7086H145.001L142.437 52.1338C141.526 50.8563 140.903 50.0532 140.568 49.7245C140.232 49.3883 139.877 49.1604 139.501 49.0409C139.126 48.9139 138.531 48.8504 137.716 48.8504H136.997V55.7086H133.451ZM136.997 46.2281H139.621C141.323 46.2281 142.385 46.1608 142.808 46.0264C143.232 45.8919 143.563 45.6603 143.803 45.3316C144.042 45.0029 144.162 44.592 144.162 44.0989C144.162 43.546 144.002 43.1015 143.683 42.7653C143.371 42.4217 142.928 42.205 142.353 42.1154C142.065 42.078 141.203 42.0593 139.765 42.0593H136.997V46.2281Z" fill="#F3BA2F"/>
<path d="M155.125 55.7086V42.0593H149.913V39.2802H163.872V42.0593H158.672V55.7086H155.125Z" fill="#F3BA2F"/>
<path d="M184.241 49.6684L187.679 50.6882C187.152 52.4812 186.273 53.8148 185.043 54.6889C183.821 55.5555 182.268 55.9888 180.382 55.9888C178.05 55.9888 176.133 55.2454 174.631 53.7587C173.13 52.2646 172.379 50.225 172.379 47.6401C172.379 44.9057 173.134 42.784 174.643 41.2749C176.153 39.7583 178.138 39 180.598 39C182.747 39 184.492 39.5939 185.834 40.7818C186.633 41.4841 187.232 42.4926 187.631 43.8075L184.121 44.592C183.913 43.7403 183.478 43.0679 182.815 42.5748C182.16 42.0817 181.361 41.8352 180.418 41.8352C179.116 41.8352 178.058 42.2722 177.243 43.1463C176.437 44.0204 176.033 45.4362 176.033 47.3935C176.033 49.4704 176.433 50.9497 177.231 51.8312C178.03 52.7128 179.069 53.1536 180.347 53.1536C181.289 53.1536 182.1 52.8734 182.779 52.3131C183.458 51.7528 183.945 50.8712 184.241 49.6684Z" fill="#F3BA2F"/>
<path d="M190.747 55.7086V39.2802H194.293V45.7462H201.242V39.2802H204.789V55.7086H201.242V48.5254H194.293V55.7086H190.747Z" fill="#F3BA2F"/>
<path d="M224.307 55.7086H220.449L218.915 51.9769H211.894L210.444 55.7086H206.682L213.523 39.2802H217.274L224.307 55.7086ZM217.777 49.209L215.357 43.1127L212.984 49.209H217.777Z" fill="#F3BA2F"/>
<path d="M226.092 55.7086V39.2802H229.639V55.7086H226.092Z" fill="#F3BA2F"/>
<path d="M233.065 55.7086V39.2802H236.516L243.705 50.2512V39.2802H247V55.7086H243.441L236.36 44.9954V55.7086H233.065Z" fill="#F3BA2F"/>
</svg>