<svg width="307" height="349" viewBox="0 0 307 349" fill="none" xmlns="http://www.w3.org/2000/svg">
<path d="M177.49 26.787C159.905 9.60999 136.798 0 112.465 0C61.754 0 20.448 41.305 20.448 92.017V143.819H81.793V92.017C81.793 75.045 95.493 61.345 112.465 61.345C129.437 61.345 143.137 75.045 143.137 92.017V143.819H204.482V92.017C204.482 67.683 194.871 44.577 177.49 26.787Z" fill="#3E5959"/>
<path d="M204.482 92.017V143.819H143.137V92.017C143.137 75.045 129.437 61.345 112.465 61.345V0C136.798 0 159.905 9.60999 177.49 26.787C194.871 44.577 204.482 67.683 204.482 92.017Z" fill="#293939"/>
<path d="M224.93 205.163V123.37H0V307.404H203.255L194.258 292.068C187.51 280.412 184.034 266.916 184.034 253.011V205.163H224.93Z" fill="#FF9100"/>
<path d="M184.033 205.163V253.011C184.033 266.916 187.509 280.412 194.257 292.068L203.254 307.404H112.464V123.37H224.929V205.163H184.033Z" fill="#FF641A"/>
<path d="M163.585 184.715V253.011C163.585 270.597 168.083 287.569 176.467 302.292C191.186 328.05 210.616 339.78 235.153 348.982C284.286 330.555 306.722 293.525 306.722 253.011V184.715H163.585Z" fill="#EBEBFC"/>
<path d="M306.723 184.715V253.011C306.723 292.94 284.941 330.31 235.154 348.982V184.715H306.723Z" fill="#CBCBF7"/>
<path d="M204.482 225.612V253.012C204.482 277.619 216.714 292.008 235.154 305.359C253.594 292.007 265.826 277.619 265.826 253.012V225.612H204.482Z" fill="#61D7A8"/>
<path d="M122.688 215.387H102.24V266.508H122.688V215.387Z" fill="#3E5959"/>
<path d="M81.792 164.267V225.612H143.137V164.267H81.792Z" fill="#3E5959"/>
<path d="M265.826 225.612V253.012C265.826 277.619 253.594 292.008 235.154 305.359V225.612H265.826Z" fill="#00AB94"/>
<path d="M143.137 164.267H112.465V225.612H143.137V164.267Z" fill="#293939"/>
<path d="M122.689 215.387H112.465V266.508H122.689V215.387Z" fill="#293939"/>
</svg>
