<svg width="512" height="512" viewBox="0 0 512 512" fill="none" xmlns="http://www.w3.org/2000/svg">
<path d="M402.44 360.13V393.2L256 512L109.56 393.2V360.13H159.13V285.98H352.87V360.13H402.44Z" fill="#61D7A8"/>
<path d="M402.44 360.13V393.2L256 512V285.98H352.87V360.13H402.44Z" fill="#00AB94"/>
<path d="M417.45 161.45C417.45 250.61 345.16 322.89 256 322.89C166.84 322.89 94.55 250.61 94.55 161.45C94.55 72.28 166.84 0 256 0C345.16 0 417.45 72.28 417.45 161.45Z" fill="#FFEE00"/>
<path d="M417.45 161.45C417.45 250.61 345.16 322.89 256 322.89V0C345.16 0 417.45 72.28 417.45 161.45Z" fill="#FFCC00"/>
<path d="M310.81 192.68C310.81 215.99 293.46 235.32 271 238.46V259.85H241V238.49C218.7 235.49 201.44 216.34 201.44 193.23H231.44C231.44 201.88 238.47 208.91 247.12 208.91H264.58C273.53 208.91 280.81 201.63 280.81 192.68C280.81 183.73 273.53 176.45 264.58 176.45H247.42C221.93 176.45 201.19 155.71 201.19 130.21C201.19 106.9 218.54 87.57 241 84.44V63.04H271V84.49C293.28 87.79 310.44 107.04 310.44 130.23H280.44C280.44 121.27 273.15 113.98 264.18 113.98H247.42C238.47 113.98 231.19 121.26 231.19 130.21C231.19 139.16 238.47 146.45 247.42 146.45H264.58C290.07 146.45 310.81 167.19 310.81 192.68V192.68Z" fill="#FFCC00"/>
<path d="M310.81 192.68C310.81 215.99 293.46 235.32 271 238.46V259.85H256V208.91H264.58C273.53 208.91 280.81 201.63 280.81 192.68C280.81 183.73 273.53 176.45 264.58 176.45H256V146.45H264.58C290.07 146.45 310.81 167.19 310.81 192.68V192.68Z" fill="#FF9E00"/>
<path d="M264.18 113.98H256V63.04H271V84.49C293.28 87.79 310.44 107.04 310.44 130.23H280.44C280.44 121.27 273.15 113.98 264.18 113.98V113.98Z" fill="#FF9E00"/>
</svg>
