<svg width="1136" height="176" viewBox="0 0 1136 176" fill="none" xmlns="http://www.w3.org/2000/svg">
<path d="M219.991 136.863C217.155 136.863 215.737 136.154 214.319 135.444C213.61 134.026 212.901 132.608 212.901 130.481V51.0645C212.901 48.9373 213.61 46.8101 214.319 46.101C215.737 44.6829 217.155 43.9738 219.991 43.9738H253.318C266.081 43.9738 275.299 46.8101 281.681 51.7736C287.353 57.4462 290.898 65.246 290.898 75.8821C290.898 86.5183 288.062 94.3181 281.681 99.9907C276.008 104.954 266.081 107.791 253.318 107.791H240.554V129.772C240.554 131.899 239.845 134.026 239.136 134.735C237.718 136.154 236.3 136.154 233.464 136.154H219.991V136.863ZM251.19 87.9364C254.736 87.9364 257.572 87.2274 259.699 85.1001C261.827 82.9729 262.536 80.1366 262.536 75.8821C262.536 71.6277 261.827 68.7914 259.699 66.6642C257.572 64.5369 254.736 63.8279 251.19 63.8279H240.554V87.9364H251.19V87.9364Z" fill="#F5F5F5"/>
<path d="M322.807 138.99C314.298 138.99 307.207 136.154 302.244 130.481C297.28 124.808 294.444 117.009 294.444 107.081C294.444 99.2817 295.862 92.9 299.407 87.2274C302.953 81.5548 307.916 77.3003 314.298 73.7549C320.679 70.9186 328.479 68.7914 336.279 68.7914C343.37 68.7914 349.042 69.5005 354.715 70.9186C360.387 72.3368 364.642 74.464 369.605 77.3003V131.899C369.605 133.317 369.605 134.735 368.896 135.445C368.187 136.154 366.769 136.154 365.351 136.154H351.17C350.46 136.154 349.042 136.154 349.042 135.445C348.333 134.735 348.333 134.735 347.624 134.026L345.497 129.772C342.661 132.608 339.824 134.735 336.279 136.154C332.734 138.281 327.77 138.99 322.807 138.99ZM332.734 120.554C336.279 120.554 339.115 119.845 341.243 117.718C343.37 116.299 344.079 113.463 344.079 110.627V89.3546C342.661 88.6455 339.824 87.9364 337.697 87.9364C332.734 87.9364 329.188 89.3546 326.352 92.9C323.516 96.4454 322.098 100.7 322.098 107.081C322.098 115.59 325.643 120.554 332.734 120.554Z" fill="#F5F5F5"/>
<path d="M388.751 136.863C385.914 136.863 384.496 136.154 383.078 135.445C381.66 134.026 381.66 132.608 381.66 130.481V75.1731C381.66 73.7549 381.66 72.3368 382.369 71.6277C383.078 70.9186 384.496 70.9186 385.914 70.9186H400.096C401.514 70.9186 402.223 70.9186 402.223 71.6277C402.932 71.6277 402.932 72.3368 403.641 73.0459L404.35 77.3003C407.186 74.464 410.023 73.0459 414.277 71.6277C418.532 70.2096 422.786 69.5005 428.459 69.5005C435.549 69.5005 441.931 71.6277 446.185 75.8822C450.44 80.1366 453.276 85.8092 453.276 94.3181V130.481C453.276 132.608 452.567 134.735 451.858 135.445C451.149 136.863 449.022 136.863 446.185 136.863H432.713C429.877 136.863 428.459 136.154 427.04 135.445C425.622 134.026 425.622 132.608 425.622 130.481V95.7363C425.622 92.9 424.913 90.7727 423.495 90.0637C422.077 88.6455 420.659 87.9365 417.823 87.9365C414.986 87.9365 412.859 88.6455 411.441 90.0637C410.023 91.4818 409.314 93.6091 409.314 95.7363V129.772C409.314 131.899 408.605 134.026 407.896 134.735C407.186 136.154 405.059 136.154 402.223 136.154H388.751V136.863Z" fill="#F5F5F5"/>
<path d="M501.493 138.99C488.729 138.99 478.802 136.154 471.712 129.772C464.621 124.099 461.076 115.59 461.076 104.245C461.076 97.1544 462.494 91.4818 466.039 85.8092C468.875 80.8457 473.839 76.5912 479.512 73.7549C485.893 70.9186 492.984 69.5005 500.784 69.5005C507.165 69.5005 512.129 70.2096 516.383 71.6277C520.638 73.0459 524.892 74.464 527.728 77.3003C528.437 78.0094 529.147 78.7185 529.147 79.4275C529.147 80.1366 528.437 80.8457 527.728 82.2638L522.056 92.1909C521.347 93.6091 520.638 94.3181 519.929 94.3181C519.22 94.3181 518.51 93.6091 517.092 92.9C514.965 91.4818 512.129 90.0637 510.002 89.3546C507.874 88.6455 505.038 87.9364 502.202 87.9364C497.947 87.9364 493.693 89.3546 490.857 92.1909C488.02 95.0272 486.602 99.2817 486.602 104.245C486.602 109.209 488.02 113.463 490.857 116.299C493.693 119.136 497.238 120.554 502.202 120.554C505.038 120.554 507.874 119.845 510.002 119.136C512.129 118.427 514.965 117.009 517.092 115.59C518.51 114.881 519.22 114.172 519.929 114.172C520.638 114.172 521.347 114.881 522.056 116.299L528.437 126.936C529.147 127.645 529.147 128.354 529.147 129.063C529.147 129.772 528.437 130.481 527.728 131.19C524.183 133.317 519.929 135.445 514.965 136.863C512.838 138.281 507.874 138.99 501.493 138.99Z" fill="#F5F5F5"/>
<path d="M566.019 138.99C557.51 138.99 550.419 136.154 545.455 130.481C540.492 124.808 537.656 117.009 537.656 107.081C537.656 99.2817 539.074 92.9 542.619 87.2274C546.164 81.5548 551.128 77.3003 557.51 73.7549C563.891 70.9186 571.691 68.7914 579.491 68.7914C586.582 68.7914 592.254 69.5005 597.927 70.9186C603.599 72.3368 607.854 74.464 612.817 77.3003V131.899C612.817 133.317 612.817 134.735 612.108 135.445C611.399 136.154 609.981 136.154 608.563 136.154H594.381C593.672 136.154 592.254 136.154 592.254 135.445C591.545 134.735 591.545 134.735 590.836 134.026L588.709 129.772C585.873 132.608 583.036 134.735 579.491 136.154C575.945 138.281 571.691 138.99 566.019 138.99ZM576.655 120.554C580.2 120.554 583.036 119.845 585.163 117.718C587.291 116.299 588 113.463 588 110.627V89.3546C586.582 88.6455 583.745 87.9364 581.618 87.9364C576.655 87.9364 573.109 89.3546 570.273 92.9C567.437 96.4454 566.019 100.7 566.019 107.081C565.309 115.59 568.855 120.554 576.655 120.554Z" fill="#F5F5F5"/>
<path d="M699.324 131.899C700.033 132.608 700.033 133.317 700.033 134.026C700.033 134.735 700.033 135.444 699.324 136.154C698.615 136.863 697.906 136.863 697.197 136.863H675.925C674.507 136.863 673.798 136.863 673.089 136.863C672.38 136.863 671.671 136.154 670.961 135.444L652.526 109.918V129.772C652.526 131.899 651.817 134.026 651.108 134.735C649.689 136.154 648.271 136.154 645.435 136.154H631.963C629.126 136.154 627.708 135.444 626.29 134.735C625.581 133.317 624.872 131.899 624.872 129.772V51.0645C624.872 48.9373 625.581 46.8101 626.29 46.101C627.708 44.6829 629.126 43.9738 631.963 43.9738H645.435C648.271 43.9738 649.689 44.6829 651.108 46.101C652.526 47.5192 652.526 48.9373 652.526 51.0645V96.4453L670.252 73.0459C670.961 72.3368 671.671 71.6277 672.38 71.6277C673.089 71.6277 673.798 70.9186 675.216 70.9186H696.488C697.197 70.9186 697.906 70.9186 698.615 71.6277C699.324 72.3368 699.324 73.0458 699.324 73.7549C699.324 74.464 699.324 75.1731 698.615 75.8821L675.216 102.827L699.324 131.899Z" fill="#F5F5F5"/>
<path d="M743.286 138.99C735.486 138.99 729.104 137.572 722.723 135.444C717.05 132.608 712.087 129.063 708.541 124.099C704.996 119.136 703.578 112.754 703.578 105.663C703.578 94.318 707.123 85.1 713.505 79.4274C719.887 73.0457 729.814 70.2094 741.868 70.2094C753.922 70.2094 763.14 73.0457 768.812 79.4274C775.194 85.1 778.03 93.6089 778.03 104.245C778.03 108.499 775.903 111.336 772.358 111.336H729.814C729.814 115.59 731.232 118.427 734.068 120.554C736.904 122.681 741.868 123.39 747.54 123.39C751.086 123.39 754.631 123.39 756.758 122.681C759.595 121.972 761.722 120.554 764.558 119.845C765.976 119.136 766.685 119.136 766.685 119.136C767.394 119.136 768.103 119.845 768.812 120.554L773.776 129.063C774.485 129.772 774.485 130.481 774.485 131.19C774.485 131.899 773.776 132.608 773.067 133.317C769.522 135.444 765.267 137.572 760.304 138.99C754.631 138.281 749.668 138.99 743.286 138.99ZM753.922 96.4452C753.922 92.8998 753.213 90.0635 751.086 88.6454C748.958 86.5182 746.122 85.8091 741.868 85.8091C737.613 85.8091 734.777 86.5182 732.65 88.6454C730.523 90.7726 729.814 92.8998 729.814 96.4452H753.922Z" fill="#F5F5F5"/>
<path d="M825.538 138.99C817.738 138.99 810.648 138.281 803.557 136.863C796.466 135.444 791.503 132.608 787.248 129.772C785.83 129.063 785.121 127.645 785.121 126.936C785.121 126.227 785.121 125.517 785.83 124.808L792.212 114.172C792.921 112.754 793.63 112.754 794.339 112.754C795.048 112.754 795.757 112.754 796.466 113.463C800.012 115.59 803.557 117.009 807.811 118.427C812.066 119.845 816.32 120.554 820.575 120.554C824.829 120.554 827.665 119.845 829.793 118.427C831.92 117.009 832.629 114.881 832.629 112.045C832.629 109.209 831.211 107.081 829.083 105.663C826.956 104.245 822.702 102.118 816.32 99.9907C807.102 96.4453 800.012 92.9 795.048 88.6455C790.085 84.391 787.248 78.0094 787.248 70.9186C787.248 61.7006 790.794 55.3189 797.175 50.3554C803.557 45.3919 812.066 43.2646 822.702 43.2646C830.502 43.2646 836.883 43.9737 841.847 45.3919C847.519 46.81 851.774 48.9372 855.319 51.0645C856.737 52.4826 857.446 53.1917 857.446 54.6098C857.446 55.3189 857.446 56.028 856.737 56.7371L850.356 67.3732C849.647 68.7914 848.938 68.7914 848.228 68.7914C847.519 68.7914 846.81 68.7914 846.101 68.0823C841.138 64.5369 834.756 63.1188 826.956 63.1188C822.702 63.1188 819.866 63.8278 817.738 65.246C815.611 66.6641 814.902 68.7914 814.902 71.6277C814.902 73.7549 815.611 75.1731 816.32 76.5912C817.738 78.0094 819.157 78.7184 820.575 80.1366C822.702 80.8457 825.538 82.2638 829.083 83.682L831.92 84.391C838.301 87.2273 843.974 89.3546 847.519 92.1909C851.774 94.3181 854.61 97.8635 856.737 101.409C858.865 104.954 859.574 109.209 859.574 114.172C859.574 121.972 856.737 129.063 850.356 133.317C846.101 136.154 836.883 138.99 825.538 138.99Z" fill="#F5F5F5"/>
<path d="M890.063 136.863C888.645 136.863 887.936 136.863 887.227 136.153C886.518 135.444 885.809 134.735 885.809 133.317L868.082 74.4639C868.082 73.7548 868.082 73.7548 868.082 73.0457C868.082 71.6276 868.791 70.9185 870.918 70.9185H888.645C890.063 70.9185 890.772 70.9185 891.481 71.6276C892.191 72.3367 892.19 72.3367 892.9 73.7548L899.99 104.954L909.208 80.1365C909.917 78.7183 909.917 78.0093 910.626 78.0093C911.335 77.3002 912.045 77.3002 913.463 77.3002H921.972C923.39 77.3002 924.099 77.3002 924.808 78.0093C925.517 78.7184 925.517 79.4274 926.226 80.1365L935.444 104.954L943.244 73.7548C943.244 73.0457 943.953 72.3367 944.662 71.6276C945.371 70.9185 946.08 70.9185 946.789 70.9185H965.225C967.352 70.9185 968.061 71.6276 968.061 73.0457C968.061 73.0457 968.061 73.7548 968.061 74.4639L950.334 133.317C949.625 134.735 949.625 135.444 948.916 136.153C948.207 136.863 947.498 136.863 946.08 136.863H932.608C931.19 136.863 930.48 136.863 929.771 136.153C929.062 135.444 928.353 134.735 928.353 133.317L919.135 108.5L909.917 133.317C909.208 134.735 909.208 135.444 908.499 136.153C907.79 136.863 907.081 136.863 905.663 136.863H890.063Z" fill="#F5F5F5"/>
<path d="M1000.68 138.99C992.171 138.99 985.08 136.154 980.116 130.481C975.153 124.808 972.317 117.009 972.317 107.081C972.317 99.2817 973.735 92.9 977.28 87.2274C980.825 81.5548 985.789 77.3003 992.171 73.7549C998.552 70.9186 1006.35 68.7914 1014.15 68.7914C1021.24 68.7914 1026.92 69.5005 1032.59 70.9186C1038.26 72.3368 1042.51 74.464 1047.48 77.3003V131.899C1047.48 133.317 1047.48 134.735 1046.77 135.445C1046.06 136.154 1044.64 136.154 1043.22 136.154H1029.04C1028.33 136.154 1027.62 136.154 1026.92 135.445C1026.21 134.735 1026.21 134.735 1025.5 134.026L1023.37 129.772C1020.53 132.608 1017.7 134.735 1014.15 136.154C1010.61 138.281 1006.35 138.99 1000.68 138.99ZM1011.32 120.554C1014.86 120.554 1017.7 119.845 1019.82 117.718C1021.95 116.299 1022.66 113.463 1022.66 110.627V89.3546C1021.24 88.6455 1018.41 87.9364 1016.28 87.9364C1011.32 87.9364 1007.77 89.3546 1004.93 92.9C1002.1 96.4454 1000.68 100.7 1000.68 107.081C999.97 115.59 1003.52 120.554 1011.32 120.554Z" fill="#F5F5F5"/>
<path d="M1066.62 164.516C1063.79 164.516 1062.37 163.807 1060.95 163.098C1060.24 161.68 1059.53 160.262 1059.53 158.135V80.1365C1063.79 77.3002 1068.75 74.4639 1075.13 73.0457C1081.51 70.9185 1087.89 70.2094 1094.28 70.2094C1121.93 70.2094 1135.4 81.5546 1135.4 104.954C1135.4 115.59 1132.57 124.099 1126.89 130.481C1121.22 136.863 1112.71 139.699 1102.08 139.699C1099.24 139.699 1096.4 138.99 1093.57 138.281C1090.73 137.572 1088.6 136.862 1086.48 135.444V158.135C1086.48 160.262 1085.77 162.389 1085.06 163.098C1083.64 164.516 1082.22 164.516 1079.39 164.516H1066.62V164.516ZM1096.4 120.554C1100.66 120.554 1103.49 119.136 1104.91 116.299C1107.04 113.463 1107.75 109.209 1107.75 104.245C1107.75 98.5724 1106.33 94.318 1104.2 91.4817C1102.08 89.3544 1098.53 87.9363 1093.57 87.9363C1090.73 87.9363 1087.89 88.6454 1086.48 89.3544V110.627C1086.48 113.463 1087.19 116.299 1089.31 117.717C1090.73 119.845 1093.57 120.554 1096.4 120.554Z" fill="#F5F5F5"/>
<path fill-rule="evenodd" clip-rule="evenodd" d="M32.0874 28.374C29.2511 14.1925 40.5963 0.720093 54.7777 0.720093C67.541 0.720093 78.1771 11.3562 78.1771 24.1196V52.4826C81.7224 52.4826 84.5587 52.4826 88.104 52.4826C90.9403 52.4826 94.4857 52.4826 97.322 52.4826V24.1196C97.322 11.3562 107.958 0.720093 120.721 0.720093C134.903 0.720093 146.248 14.1925 143.412 28.374L137.03 61.7006C158.302 70.9185 174.611 87.2273 174.611 107.79V119.845C174.611 136.863 163.266 151.044 147.666 160.262C132.066 170.189 110.794 175.862 87.395 175.862C63.9956 175.862 42.7235 170.189 27.1239 160.262C11.5243 151.044 0.179199 136.863 0.179199 119.845V107.79C0.179199 87.2273 16.4878 70.9185 37.76 61.7006L32.0874 28.374ZM129.23 66.6641L136.321 27.665C138.448 17.7379 130.648 8.51991 120.721 8.51991C111.503 8.51991 104.413 15.6107 104.413 24.8287V60.9915C102.285 60.9915 99.4492 60.2824 97.322 60.2824C94.4857 60.2824 90.9403 60.2824 88.104 60.2824C84.5587 60.2824 81.7224 60.2824 78.1771 60.9915C76.0498 60.9915 73.2136 61.7006 71.0863 61.7006V25.5377C71.0863 16.3198 63.9956 9.229 54.7777 9.229C44.8507 9.229 37.0509 18.447 39.1781 28.374L46.2688 68.0823C23.5786 76.5912 7.97899 92.1908 7.97899 109.918V121.972C7.97899 148.917 43.4326 170.898 87.395 170.898C131.357 170.898 166.811 148.917 166.811 121.972V109.918C167.52 90.7727 151.92 75.173 129.23 66.6641Z" fill="#633001"/>
<path d="M167.52 120.554C167.52 147.499 132.066 169.48 88.1037 169.48C44.1413 169.48 8.68774 147.499 8.68774 120.554V108.5H168.229V120.554H167.52Z" fill="#FEDC90"/>
<path fill-rule="evenodd" clip-rule="evenodd" d="M39.1785 26.9559C37.0512 17.0288 44.851 7.81085 54.778 7.81085C63.996 7.81085 71.0867 14.9016 71.0867 24.1196V60.9915C76.7592 60.2824 82.4318 59.5734 88.1044 59.5734C93.7769 59.5734 99.4495 60.2825 104.413 60.2825V24.1196C104.413 14.9016 111.504 7.81085 120.722 7.81085C130.649 7.81085 138.448 17.0288 136.321 26.9559L129.231 65.9551C152.63 74.464 168.229 90.0636 168.229 107.791C168.229 134.735 132.776 156.717 88.8134 156.717C44.851 156.717 9.39746 134.735 9.39746 107.791C9.39746 90.0636 24.997 74.464 47.6873 65.9551L39.1785 26.9559Z" fill="#D1884F"/>
<path d="M66.1222 104.954C66.1222 112.045 61.8678 118.427 57.6134 118.427C53.3589 118.427 49.1045 112.754 49.1045 104.954C49.1045 97.8634 53.3589 91.4817 57.6134 91.4817C61.8678 91.4817 66.1222 97.1543 66.1222 104.954Z" fill="#633001"/>
<path d="M127.103 104.954C127.103 112.045 122.849 118.427 118.594 118.427C113.631 118.427 110.085 112.754 110.085 104.954C110.085 97.8634 114.34 91.4817 118.594 91.4817C122.849 91.4817 127.103 97.1543 127.103 104.954Z" fill="#633001"/>
</svg>
