<svg width="512" height="512" viewBox="0 0 512 512" fill="none" xmlns="http://www.w3.org/2000/svg">
<path d="M512 256C512 324.376 485.376 388.661 437.018 437.018C388.671 485.375 324.376 512 256 512C187.614 512 123.329 485.376 74.982 437.018C26.624 388.661 0 324.376 0 256C0 187.614 26.624 123.329 74.982 74.982C123.329 26.624 187.614 0 256 0C324.376 0 388.671 26.624 437.018 74.982C485.375 123.329 512 187.614 512 256Z" fill="#61D7A8"/>
<path d="M512 256C512 324.376 485.376 388.661 437.018 437.018C388.671 485.375 324.376 512 256 512V0C324.376 0 388.671 26.624 437.018 74.982C485.375 123.329 512 187.614 512 256Z" fill="#00AB94"/>
<path d="M151.169 230.276V190.508C151.169 178.26 154.568 169.3 161.373 163.63C168.173 157.965 177.537 155.128 189.46 155.128C201.382 155.128 210.78 157.965 217.653 163.63C224.527 169.3 227.964 178.26 227.964 190.508V230.276C227.964 242.528 224.527 251.488 217.653 257.154C210.779 262.824 201.382 265.656 189.46 265.656C177.537 265.656 168.174 262.823 161.373 257.154C154.567 251.488 151.169 242.527 151.169 230.276ZM173.933 230.276C173.933 240.149 179.097 245.086 189.429 245.086C199.94 245.086 205.199 240.149 205.199 230.276V190.508C205.199 180.634 199.94 175.698 189.429 175.698C179.097 175.698 173.933 180.634 173.933 190.508V230.276ZM190.256 354.518C190.256 353.241 190.616 351.685 191.341 349.856L288.982 149.918C290.97 146.079 294.224 144.158 298.744 144.158C302.249 144.158 305.429 145.349 308.288 147.724C311.147 150.103 312.577 153.029 312.577 156.5C312.577 158.33 312.213 159.975 311.493 161.437L213.841 360.552C212.213 364.572 208.686 366.586 203.26 366.586C199.57 366.586 196.481 365.352 193.991 362.884C191.499 360.414 190.256 357.624 190.256 354.518ZM273.764 321.057V281.289C273.764 269.041 277.163 260.081 283.968 254.411C290.768 248.745 300.133 245.908 312.055 245.908C323.977 245.908 333.375 248.745 340.248 254.411C347.122 260.081 350.559 269.041 350.559 281.289V321.057C350.559 333.309 347.075 342.269 340.111 347.935C333.143 353.605 323.783 356.437 312.024 356.437C286.518 356.437 273.764 344.644 273.764 321.057ZM296.528 321.057C296.528 330.931 301.692 335.867 312.024 335.867C322.536 335.867 327.794 330.93 327.794 321.057V281.289C327.794 271.415 322.536 266.479 312.024 266.479C301.692 266.479 296.528 271.416 296.528 281.289V321.057Z" fill="#E7EEFD"/>
</svg>
