<?xml version="1.0" encoding="iso-8859-1"?>
<!-- Generator: Adobe Illustrator 19.0.0, SVG Export Plug-In . SVG Version: 6.00 Build 0)  -->
<svg xmlns="http://www.w3.org/2000/svg" xmlns:xlink="http://www.w3.org/1999/xlink" version="1.1" id="Layer_1" x="0px" y="0px" viewBox="0 0 512 512" style="enable-background:new 0 0 512 512;" xml:space="preserve" width="512" height="512">
<g>
	<circle style="fill:#61D7A8;" cx="256" cy="256" r="256"/>
	<path style="fill:#00AB94;" d="M503.907,320.102L289.738,105.933L157,148l36.18,158.36l-80.476,80.476l124.473,124.473   C243.394,511.761,249.669,512,256,512C375.249,512,475.453,430.465,503.907,320.102z"/>
	<g>
		<g>
			<path style="fill:#3E5959;" d="M290.129,106.296c-17.585-17.177-40.692-26.787-65.025-26.787     c-50.711,0-92.017,41.305-92.017,92.017v51.802h61.345v-51.802c0-16.972,13.7-30.672,30.672-30.672s30.672,13.7,30.672,30.672     v51.802h61.345v-51.802C317.121,147.192,307.51,124.086,290.129,106.296z"/>
		</g>
		<path style="fill:#293939;" d="M317.121,171.526v51.802h-61.345v-51.802c0-16.972-13.7-30.672-30.672-30.672V79.509    c24.333,0,47.44,9.61,65.025,26.787C307.51,124.086,317.121,147.192,317.121,171.526z"/>
		<g>
			<path style="fill:#FF9100;" d="M337.569,284.672v-81.793h-224.93v184.034h203.255l-8.997-15.336     c-6.748-11.656-10.224-25.152-10.224-39.057v-47.848H337.569z"/>
		</g>
		<path style="fill:#FF641A;" d="M296.672,284.672v47.848c0,13.905,3.476,27.401,10.224,39.057l8.997,15.336h-90.79V202.879h112.465    v81.793H296.672z"/>
		<g>
			<path style="fill:#EBEBFC;" d="M276.224,264.224v68.296c0,17.586,4.498,34.558,12.882,49.281     c14.719,25.758,34.149,37.488,58.686,46.69c49.133-18.427,71.569-55.457,71.569-95.971v-68.296H276.224z"/>
		</g>
		<path style="fill:#CBCBF7;" d="M419.362,264.224v68.296c0,39.929-21.782,77.299-71.569,95.971V264.224H419.362z"/>
		<g>
			<g>
				<path style="fill:#61D7A8;" d="M317.121,305.121v27.4c0,24.607,12.232,38.996,30.672,52.347      c18.44-13.352,30.672-27.74,30.672-52.347v-27.4H317.121z"/>
			</g>
		</g>
		<g>
			<rect x="214.879" y="294.896" style="fill:#3E5959;" width="20.448" height="51.121"/>
		</g>
		<g>
			<path style="fill:#3E5959;" d="M194.431,243.776v61.345h61.345v-61.345H194.431z"/>
		</g>
		<path style="fill:#00AB94;" d="M378.465,305.121v27.4c0,24.607-12.232,38.996-30.672,52.347v-79.747H378.465z"/>
		<rect x="225.104" y="243.776" style="fill:#293939;" width="30.672" height="61.345"/>
		<rect x="225.104" y="294.896" style="fill:#293939;" width="10.224" height="51.121"/>
	</g>
</g>















</svg>
